<mxfile host="app.diagrams.net" modified="2023-08-16T07:30:41.373Z" agent="Mozilla/5.0 (Windows NT 10.0; Win64; x64) AppleWebKit/537.36 (KHTML, like Gecko) Chrome/115.0.0.0 Safari/537.36 OPR/101.0.0.0" version="21.6.8" etag="VMjzDociMw7HDZ0ElUVw" type="github">
  <diagram name="Page-1" id="2tY0RuezUWJQ8l7OaVSP">
    <mxGraphModel>
      <root>
        <mxCell id="0" />
        <mxCell id="1" parent="0" />
      </root>
    </mxGraphModel>
  </diagram>
</mxfile>
